<svg width="815" height="451" viewBox="0 0 815 451" fill="none" xmlns="http://www.w3.org/2000/svg">
<path d="M43.6391 362.067C41.4788 361.131 38.2382 360.663 33.9175 360.663C29.5968 360.663 26.1043 362.535 23.4398 366.28C20.7754 370.024 19.4432 376.577 19.4432 385.939C19.4432 395.3 20.7034 401.961 23.2238 405.922C25.8162 409.811 29.6328 411.755 34.6736 411.755C42.3789 411.755 49.292 410.603 55.413 408.298L59.3017 417.912C51.6684 422.449 42.703 424.717 32.4053 424.717C22.1076 424.717 14.6544 421.801 10.0456 415.968C5.5089 410.135 3.24053 400.593 3.24053 387.343C3.24053 374.093 6.04899 364.299 11.6659 357.962C17.3548 351.625 25.3121 348.457 35.5378 348.457C43.7471 348.457 51.5604 350.725 58.9776 355.262C58.9776 355.694 58.9776 356.522 58.9776 357.746C58.9776 358.97 58.7256 361.059 58.2215 364.011C57.7174 366.964 56.9973 369.376 56.0611 371.248H45.7995C44.7913 369.304 44.0712 366.244 43.6391 362.067ZM66.5726 377.838C66.5726 376.757 66.6086 375.605 66.6806 374.381C73.3777 370.78 80.5789 368.98 88.2841 368.98C95.9894 368.98 101.498 370.456 104.811 373.409C108.195 376.289 109.888 381.114 109.888 387.883V410.891C112.408 411.395 114.388 412.007 115.829 412.727V422.125C112.156 423.853 106.899 424.717 100.058 424.717C99.3379 422.845 98.7258 420.576 98.2217 417.912C95.1252 422.449 89.5083 424.717 81.371 424.717C76.5462 424.717 72.4055 423.313 68.949 420.504C65.5644 417.696 63.8722 413.879 63.8722 409.055C63.8722 404.23 65.4564 400.449 68.6249 397.713C71.8655 394.904 76.6542 393.5 82.9913 393.5H94.7652V388.315C94.7652 382.698 91.7767 379.89 85.7997 379.89C83.5674 379.89 81.7311 380.106 80.2908 380.538C80.1468 383.562 79.7147 385.903 78.9946 387.559H68.4089C67.1847 385.039 66.5726 381.798 66.5726 377.838ZM86.0158 413.699C89.6884 413.699 92.6048 412.619 94.7652 410.459V401.601H87.204C82.0191 401.601 79.4267 403.582 79.4267 407.542C79.4267 409.343 79.9668 410.819 81.047 411.971C82.1991 413.123 83.8554 413.699 86.0158 413.699ZM119.471 347.161C123.503 346.224 127.248 345.756 130.705 345.756C134.161 345.756 137.078 345.864 139.454 346.08V411.863C142.263 412.943 144.243 414.167 145.395 415.536L144.315 423.853H119.471L118.391 415.536C119.399 414.167 121.379 412.943 124.332 411.863V359.15C121.811 358.286 119.831 357.062 118.391 355.478L119.471 347.161ZM151.152 369.844C155.185 368.908 158.929 368.44 162.386 368.44C165.842 368.44 168.759 368.548 171.135 368.764V411.863C173.944 412.943 175.924 414.167 177.076 415.536L175.996 423.853H151.152L150.072 415.536C151.08 414.167 153.06 412.943 156.013 411.863V381.834C153.492 380.97 151.512 379.746 150.072 378.162L151.152 369.844ZM163.358 362.391C157.381 362.391 154.393 359.691 154.393 354.29C154.393 348.817 157.381 346.08 163.358 346.08C169.407 346.08 172.432 348.817 172.432 354.29C172.432 359.691 169.407 362.391 163.358 362.391ZM203 378.702C198.247 378.702 195.87 380.106 195.87 382.914C195.87 385.579 198.355 387.559 203.324 388.855L211.857 391.124C220.643 393.428 225.035 398.505 225.035 406.354C225.035 411.755 223.127 416.184 219.31 419.64C215.566 423.025 209.553 424.717 201.271 424.717C193.062 424.717 186.653 423.565 182.044 421.261C181.972 420.468 181.936 419.676 181.936 418.884C181.936 414.924 182.728 411.359 184.313 408.19H193.278C194.214 409.919 194.826 411.719 195.114 413.591C196.555 414.023 198.607 414.239 201.271 414.239C207.608 414.239 210.777 412.439 210.777 408.839C210.777 407.686 210.345 406.75 209.481 406.03C208.617 405.238 206.924 404.482 204.404 403.762L195.87 401.277C191.478 400.053 188.057 398.253 185.609 395.876C183.16 393.428 181.936 389.863 181.936 385.183C181.936 380.43 183.845 376.541 187.661 373.517C191.478 370.492 196.915 368.98 203.972 368.98C211.101 368.98 217.114 370.024 222.011 372.113C222.083 372.833 222.119 373.553 222.119 374.273C222.119 378.018 221.327 381.474 219.742 384.643H210.885C209.949 382.986 209.337 381.258 209.049 379.458C207.032 378.954 205.016 378.702 203 378.702ZM249.79 356.234V369.844H265.236V378.918H249.79V406.246C249.79 408.551 250.114 410.243 250.762 411.323C251.41 412.331 252.958 412.835 255.407 412.835C257.855 412.835 260.484 412.295 263.292 411.215L266.533 419.64C260.988 422.449 255.299 423.853 249.466 423.853C243.705 423.853 239.78 422.629 237.692 420.18C235.676 417.66 234.667 414.023 234.667 409.271V378.918H229.807L228.618 372.329C229.771 370.96 232.147 369.592 235.748 368.224C236.612 362.319 238.664 358.322 241.905 356.234H249.79ZM270.105 347.161C274.137 346.224 277.882 345.756 281.339 345.756C284.795 345.756 287.712 345.864 290.088 346.08V373.085C291.816 371.933 294.121 370.96 297.001 370.168C299.882 369.376 302.438 368.98 304.67 368.98C311.8 368.98 316.732 370.708 319.469 374.165C322.205 377.621 323.573 382.878 323.573 389.936V411.863C326.382 412.943 328.362 414.167 329.514 415.536L328.434 423.853H303.59L302.51 415.536C303.518 414.167 305.499 412.943 308.451 411.863V390.476C308.451 386.587 307.803 383.995 306.507 382.698C305.282 381.33 303.014 380.646 299.702 380.646C296.389 380.646 293.185 381.798 290.088 384.103V411.863C292.896 412.943 294.877 414.167 296.029 415.536L294.949 423.853H270.105L269.025 415.536C270.033 414.167 272.013 412.943 274.966 411.863V359.15C272.445 358.286 270.465 357.062 269.025 355.478L270.105 347.161ZM359.22 424.717C350.579 424.717 344.062 422.413 339.669 417.804C335.348 413.195 333.188 406.498 333.188 397.713C333.188 392.384 333.944 387.811 335.456 383.995C336.968 380.106 339.021 377.117 341.613 375.029C346.654 370.996 352.523 368.98 359.22 368.98C365.917 368.98 371.03 370.708 374.559 374.165C378.159 377.549 379.959 383.67 379.959 392.528C379.959 397.713 377.403 400.305 372.29 400.305H348.85C349.138 404.842 350.291 408.046 352.307 409.919C354.395 411.791 357.672 412.727 362.137 412.727C364.585 412.727 366.925 412.439 369.158 411.863C371.39 411.287 373.01 410.711 374.019 410.135L375.531 409.271L378.771 417.912C378.339 418.416 377.691 419.064 376.827 419.856C376.035 420.576 373.947 421.585 370.562 422.881C367.249 424.105 363.469 424.717 359.22 424.717ZM366.025 390.692C366.169 389.683 366.241 388.459 366.241 387.019C366.241 385.579 365.665 384.067 364.513 382.482C363.361 380.826 361.344 379.998 358.464 379.998C355.656 379.998 353.495 380.862 351.983 382.59C350.471 384.319 349.463 387.235 348.958 391.34L366.025 390.692ZM386.592 369.844C390.552 368.98 394.117 368.548 397.285 368.548C400.454 368.548 403.082 368.62 405.171 368.764V374.165C406.971 372.653 409.347 371.428 412.3 370.492C415.324 369.484 418.205 368.98 420.941 368.98C427.998 368.98 432.931 370.636 435.74 373.949C438.62 377.261 440.06 382.986 440.06 391.124V411.863C442.869 412.943 444.849 414.167 446.001 415.536L444.921 423.853H420.077L418.997 415.536C420.005 414.167 421.985 412.943 424.938 411.863V390.476C424.938 386.587 424.29 383.995 422.994 382.698C421.769 381.33 419.537 380.646 416.296 380.646C413.056 380.646 409.815 381.798 406.575 384.103V411.863C409.383 412.943 411.364 414.167 412.516 415.536L411.436 423.853H386.592L385.511 415.536C386.52 414.167 388.5 412.943 391.452 411.863V381.834C388.932 380.97 386.952 379.746 385.511 378.162L386.592 369.844ZM451.049 369.844C455.081 368.908 458.826 368.44 462.282 368.44C465.739 368.44 468.655 368.548 471.032 368.764V411.863C473.84 412.943 475.821 414.167 476.973 415.536L475.893 423.853H451.049L449.968 415.536C450.977 414.167 452.957 412.943 455.909 411.863V381.834C453.389 380.97 451.409 379.746 449.968 378.162L451.049 369.844ZM463.255 362.391C457.278 362.391 454.289 359.691 454.289 354.29C454.289 348.817 457.278 346.08 463.255 346.08C469.304 346.08 472.328 348.817 472.328 354.29C472.328 359.691 469.304 362.391 463.255 362.391ZM506.677 379.998C500.052 379.998 496.739 385.687 496.739 397.065C496.739 402.826 497.639 406.858 499.44 409.163C501.312 411.395 503.976 412.511 507.433 412.511C512.906 412.511 517.731 412.007 521.907 410.999L525.148 419.316C522.843 420.829 519.747 422.125 515.858 423.205C511.97 424.213 508.189 424.717 504.516 424.717C488.962 424.717 481.185 415.716 481.185 397.713C481.185 387.199 483.885 379.638 489.286 375.029C494.111 370.996 499.98 368.98 506.893 368.98C513.806 368.98 519.567 370.276 524.176 372.869C524.248 373.589 524.284 374.273 524.284 374.921C524.284 379.026 523.348 382.914 521.475 386.587H511.97C510.961 384.787 510.349 382.626 510.133 380.106C509.269 380.034 508.117 379.998 506.677 379.998ZM551.525 378.702C546.772 378.702 544.396 380.106 544.396 382.914C544.396 385.579 546.88 387.559 551.849 388.855L560.383 391.124C569.168 393.428 573.561 398.505 573.561 406.354C573.561 411.755 571.652 416.184 567.836 419.64C564.091 423.025 558.078 424.717 549.797 424.717C541.588 424.717 535.178 423.565 530.57 421.261C530.498 420.468 530.462 419.676 530.462 418.884C530.462 414.924 531.254 411.359 532.838 408.19H541.804C542.74 409.919 543.352 411.719 543.64 413.591C545.08 414.023 547.132 414.239 549.797 414.239C556.134 414.239 559.302 412.439 559.302 408.839C559.302 407.686 558.87 406.75 558.006 406.03C557.142 405.238 555.45 404.482 552.929 403.762L544.396 401.277C540.003 400.053 536.583 398.253 534.134 395.876C531.686 393.428 530.462 389.863 530.462 385.183C530.462 380.43 532.37 376.541 536.187 373.517C540.003 370.492 545.44 368.98 552.497 368.98C559.626 368.98 565.639 370.024 570.536 372.113C570.608 372.833 570.644 373.553 570.644 374.273C570.644 378.018 569.852 381.474 568.268 384.643H559.41C558.474 382.986 557.862 381.258 557.574 379.458C555.558 378.954 553.541 378.702 551.525 378.702ZM643.749 362.067C641.588 361.131 638.348 360.663 634.027 360.663C629.706 360.663 626.214 362.535 623.549 366.28C620.885 370.024 619.553 376.577 619.553 385.939C619.553 395.3 620.813 401.961 623.333 405.922C625.926 409.811 629.742 411.755 634.783 411.755C642.488 411.755 649.401 410.603 655.522 408.298L659.411 417.912C651.778 422.449 642.812 424.717 632.515 424.717C622.217 424.717 614.764 421.801 610.155 415.968C605.618 410.135 603.35 400.593 603.35 387.343C603.35 374.093 606.158 364.299 611.775 357.962C617.464 351.625 625.422 348.457 635.647 348.457C643.857 348.457 651.67 350.725 659.087 355.262C659.087 355.694 659.087 356.522 659.087 357.746C659.087 358.97 658.835 361.059 658.331 364.011C657.827 366.964 657.107 369.376 656.171 371.248H645.909C644.901 369.304 644.181 366.244 643.749 362.067ZM664.306 347.161C668.338 346.224 672.083 345.756 675.54 345.756C678.996 345.756 681.913 345.864 684.289 346.08V411.863C687.097 412.943 689.078 414.167 690.23 415.536L689.15 423.853H664.306L663.226 415.536C664.234 414.167 666.214 412.943 669.166 411.863V359.15C666.646 358.286 664.666 357.062 663.226 355.478L664.306 347.161ZM734.549 419.316C729.58 422.917 723.711 424.717 716.942 424.717C710.245 424.717 705.564 423.313 702.9 420.504C700.236 417.696 698.903 413.123 698.903 406.786V381.834C696.383 380.97 694.403 379.746 692.962 378.162L694.043 369.844C698.075 368.908 701.82 368.44 705.276 368.44C708.733 368.44 711.649 368.548 714.026 368.764V403.222C714.026 407.11 714.602 409.703 715.754 410.999C716.978 412.223 719.355 412.835 722.883 412.835C726.412 412.835 729.688 411.683 732.713 409.379V381.834C730.192 380.97 728.212 379.746 726.772 378.162L727.852 369.844C731.885 368.908 735.629 368.44 739.086 368.44C742.542 368.44 745.459 368.548 747.835 368.764V410.891C750.356 411.395 752.336 412.007 753.776 412.727V421.261C749.456 423.565 744.019 424.717 737.466 424.717C735.665 423.421 734.693 421.621 734.549 419.316ZM755.925 347.161C759.958 346.224 763.702 345.756 767.159 345.756C770.615 345.756 773.532 345.864 775.908 346.08V373.085C777.42 372.005 779.437 371.068 781.957 370.276C784.478 369.412 786.89 368.98 789.194 368.98C797.044 368.98 802.552 370.996 805.721 375.029C808.889 379.062 810.474 385.939 810.474 395.66C810.474 401.061 809.718 405.742 808.205 409.703C806.765 413.591 804.785 416.58 802.264 418.668C797.512 422.701 791.895 424.717 785.414 424.717C780.517 424.717 775.692 423.493 770.939 421.045C769.571 422.917 767.987 423.853 766.187 423.853H760.786V359.15C758.265 358.286 756.285 357.062 754.845 355.478L755.925 347.161ZM784.55 413.699C791.463 413.699 794.919 407.902 794.919 396.309C794.919 390.188 794.307 386.047 793.083 383.887C791.931 381.654 789.878 380.538 786.926 380.538C782.461 380.538 778.789 381.726 775.908 384.103V411.863C779.005 413.087 781.885 413.699 784.55 413.699Z" fill="#32CB00"/>
<path d="M324.231 317.597C312.622 305.47 306.769 296.521 297.188 277.744C312.633 259.257 314.931 246.037 318.538 222.234L361.238 229.35L364.085 297.67L376.895 304.787C378.639 310.673 378.165 313.411 375.471 317.597H324.231Z" fill="#32CB00"/>
<path d="M482.221 257.817C477.763 239.869 464.371 232.209 436.675 219.387L412.478 223.657L412.618 225.214C415.358 255.634 416.936 273.156 422.441 297.67H411.055C407.627 305.452 407.631 309.815 411.055 317.597H460.871C473.664 294.506 478.783 281.441 482.221 257.817Z" fill="#32CB00"/>
<path d="M324.231 317.597C312.622 305.47 306.769 296.521 297.188 277.744C312.633 259.257 314.931 246.037 318.538 222.234L361.238 229.35L364.085 297.67L376.895 304.787C378.639 310.673 378.165 313.411 375.471 317.597H324.231Z" stroke="#212121" stroke-width="3.77206"/>
<path d="M482.221 257.817C477.763 239.869 464.371 232.209 436.675 219.387L412.478 223.657L412.618 225.214C415.358 255.634 416.936 273.156 422.441 297.67H411.055C407.627 305.452 407.631 309.815 411.055 317.597H460.871C473.664 294.506 478.783 281.441 482.221 257.817Z" stroke="#212121" stroke-width="3.77206"/>
<path d="M204.668 243.583C197.941 279.158 203.798 293.56 214.631 319.02L270.141 317.597V309.057L255.908 297.67C300.126 279.426 309.997 255.325 311.418 196.613L315.688 239.313C374.468 259.955 410.605 255.881 458.021 229.35C446.675 211.012 441.105 198.91 433.825 173.84C447.846 204.805 458.973 216.039 485.065 223.657L486.488 247.853C503.526 265.851 506.83 276.986 507.838 297.67H499.298C496.133 305.452 495.793 309.815 499.298 317.597H559.078C568.744 267.859 565.395 229.386 530.611 153.913L499.298 108.367C510.672 118.776 517.886 124.304 523.495 136.833C539.806 141.41 544.896 140.842 551.961 138.257C561.418 134.042 563.898 129.428 564.771 118.33C557.281 112.13 551.792 110.528 540.575 109.79L547.691 108.367C556.953 110.955 559.916 112.091 564.771 114.06C567.379 113.741 567.924 112.722 567.618 109.79C564.968 99.6027 562.156 94.6448 554.808 87.0167C556.404 77.6102 556.605 72.7698 547.691 69.9367C557.483 58.9534 557.485 53.3427 547.691 44.3167C533.399 35.4251 527.079 26.4832 517.801 5.88675C507.252 0.962296 501.297 0.452795 490.758 5.88675C465.813 21.8106 452.26 33.8449 429.555 61.3967C442.059 61.6267 444.233 64.3264 446.635 69.9367C422.338 61.1987 410.566 64.5118 392.548 82.7467C376.812 119.583 365.293 133.692 342.731 153.913L352.695 133.987C327.676 125.373 314.928 125.838 292.915 129.717C254.462 148.709 246.841 169.518 248.791 217.963C235.501 237.05 226.053 242.943 204.668 243.583Z" fill="#32CB00" stroke="#212121" stroke-width="3.77206"/>
</svg>
