<svg width="44" height="32" viewBox="0 0 44 32" fill="none" xmlns="http://www.w3.org/2000/svg">
<path fill-rule="evenodd" clip-rule="evenodd" d="M17.342 27.5071L39.9252 4.92389L38.8079 3.80664L16.2247 26.3898L4.70172 14.8669L3.58447 15.9841L15.1075 27.5071L16.2247 28.6243L17.342 27.5071Z" fill="black"/>
<path d="M39.9252 4.92389L42.1597 7.15839C43.3937 5.92431 43.3937 3.92347 42.1597 2.68939L39.9252 4.92389ZM17.342 27.5071L15.1075 25.2726L15.1075 25.2726L17.342 27.5071ZM38.8079 3.80664L41.0424 1.57214C40.4498 0.979515 39.646 0.646581 38.8079 0.64658C37.9698 0.64658 37.166 0.979514 36.5734 1.57214L38.8079 3.80664ZM16.2247 26.3898L13.9902 28.6243C15.2243 29.8584 17.2251 29.8584 18.4592 28.6243L16.2247 26.3898ZM4.70172 14.8669L6.93622 12.6324C6.3436 12.0397 5.53982 11.7068 4.70172 11.7068C3.86362 11.7068 3.05985 12.0397 2.46722 12.6324L4.70172 14.8669ZM3.58447 15.9841L1.34997 13.7496C0.115892 14.9837 0.115893 16.9845 1.34997 18.2186L3.58447 15.9841ZM15.1075 27.5071L17.342 25.2726L15.1075 27.5071ZM16.2247 28.6243L13.9902 30.8588C14.5828 31.4515 15.3866 31.7844 16.2247 31.7844C17.0628 31.7844 17.8666 31.4515 18.4592 30.8588L16.2247 28.6243ZM37.6907 2.68939L15.1075 25.2726L19.5765 29.7416L42.1597 7.15839L37.6907 2.68939ZM36.5734 6.04114L37.6907 7.15839L42.1597 2.68939L41.0424 1.57214L36.5734 6.04114ZM18.4592 28.6243L41.0424 6.04114L36.5734 1.57214L13.9902 24.1553L18.4592 28.6243ZM2.46722 17.1014L13.9902 28.6243L18.4592 24.1553L6.93622 12.6324L2.46722 17.1014ZM5.81897 18.2186L6.93622 17.1014L2.46722 12.6324L1.34997 13.7496L5.81897 18.2186ZM17.342 25.2726L5.81897 13.7496L1.34997 18.2186L12.873 29.7416L17.342 25.2726ZM18.4592 26.3898L17.342 25.2726L12.873 29.7416L13.9902 30.8588L18.4592 26.3898ZM15.1075 25.2726L13.9902 26.3898L18.4592 30.8588L19.5765 29.7416L15.1075 25.2726Z" fill="black"/>
</svg>
